<?xml version="1.0" encoding="UTF-8" standalone="no"?>
<!DOCTYPE svg PUBLIC "-//W3C//DTD SVG 1.1//EN"
 "http://www.w3.org/Graphics/SVG/1.1/DTD/svg11.dtd">
<!-- Generated by graphviz version 12.2.1 (20241206.2353)
 -->
<!-- Pages: 1 -->
<svg width="1515pt" height="304pt"
 viewBox="0.00 0.00 1514.86 304.15" xmlns="http://www.w3.org/2000/svg" xmlns:xlink="http://www.w3.org/1999/xlink">
<g id="graph0" class="graph" transform="scale(1 1) rotate(0) translate(4 300.15)">
<polygon fill="white" stroke="none" points="-4,4 -4,-300.15 1510.86,-300.15 1510.86,4 -4,4"/>
<!-- start -->
<g id="node1" class="node">
<title>start</title>
</g>
<!-- (0, 0) -->
<g id="node2" class="node">
<title>(0, 0)</title>
<ellipse fill="none" stroke="black" cx="109.36" cy="-90.26" rx="31.39" ry="31.39"/>
<text text-anchor="middle" x="109.36" y="-85.21" font-family="Times New Roman,serif" font-size="14.00">(0, 0)</text>
</g>
<!-- start&#45;&gt;(0, 0) -->
<g id="edge1" class="edge">
<title>start&#45;&gt;(0, 0)</title>
<path fill="none" stroke="black" d="M0.8,-90.26C2.64,-90.26 36.8,-90.26 66.14,-90.26"/>
<polygon fill="black" stroke="black" points="65.97,-93.76 75.97,-90.26 65.97,-86.76 65.97,-93.76"/>
<text text-anchor="middle" x="39.34" y="-93.46" font-family="Times New Roman,serif" font-size="14.00">start</text>
</g>
<!-- (0, 0)&#45;&gt;(0, 0) -->
<g id="edge2" class="edge">
<title>(0, 0)&#45;&gt;(0, 0)</title>
<path fill="none" stroke="black" d="M97.33,-119.71C94.07,-138.99 98.08,-157.65 109.36,-157.65 118.44,-157.65 122.81,-145.57 122.47,-130.8"/>
<polygon fill="black" stroke="black" points="125.99,-130.83 121.54,-121.21 119.02,-131.5 125.99,-130.83"/>
<text text-anchor="middle" x="109.36" y="-160.85" font-family="Times New Roman,serif" font-size="14.00">¬a∧¬b, ⟨0,0⟩</text>
</g>
<!-- (0, 1) -->
<g id="node3" class="node">
<title>(0, 1)</title>
<ellipse fill="none" stroke="black" cx="323.64" cy="-152.26" rx="31.39" ry="31.39"/>
<text text-anchor="middle" x="323.64" y="-147.21" font-family="Times New Roman,serif" font-size="14.00">(0, 1)</text>
</g>
<!-- (0, 0)&#45;&gt;(0, 1) -->
<g id="edge3" class="edge">
<title>(0, 0)&#45;&gt;(0, 1)</title>
<path fill="none" stroke="black" d="M139.88,-98.88C176.92,-109.7 240.64,-128.31 282.2,-140.45"/>
<polygon fill="black" stroke="black" points="281,-143.75 291.58,-143.19 282.96,-137.03 281,-143.75"/>
<text text-anchor="middle" x="216.5" y="-137.14" font-family="Times New Roman,serif" font-size="14.00">b∧¬a, ⟨0,0⟩</text>
</g>
<!-- (1, 0) -->
<g id="node4" class="node">
<title>(1, 0)</title>
<ellipse fill="none" stroke="black" cx="430.78" cy="-51.26" rx="31.39" ry="31.39"/>
<text text-anchor="middle" x="430.78" y="-46.21" font-family="Times New Roman,serif" font-size="14.00">(1, 0)</text>
</g>
<!-- (0, 0)&#45;&gt;(1, 0) -->
<g id="edge4" class="edge">
<title>(0, 0)&#45;&gt;(1, 0)</title>
<path fill="none" stroke="black" d="M140.73,-86.23C149.45,-85.09 158.98,-83.86 167.75,-82.76 245.36,-73.03 335.98,-62.27 387.75,-56.18"/>
<polygon fill="black" stroke="black" points="388.09,-59.66 397.61,-55.02 387.27,-52.71 388.09,-59.66"/>
<text text-anchor="middle" x="216.5" y="-85.96" font-family="Times New Roman,serif" font-size="14.00">a∧¬b, ⟨0,0⟩</text>
</g>
<!-- (0, 1)&#45;&gt;(0, 1) -->
<g id="edge5" class="edge">
<title>(0, 1)&#45;&gt;(0, 1)</title>
<path fill="none" stroke="black" d="M306.15,-178.55C299.61,-198.9 305.44,-219.65 323.64,-219.65 338.58,-219.65 345.18,-205.69 343.47,-189.43"/>
<polygon fill="black" stroke="black" points="346.97,-189.07 341.45,-180.03 340.12,-190.54 346.97,-189.07"/>
<text text-anchor="middle" x="323.64" y="-222.85" font-family="Times New Roman,serif" font-size="14.00">¬a, ⟨0,0⟩</text>
</g>
<!-- (1, 2) -->
<g id="node5" class="node">
<title>(1, 2)</title>
<ellipse fill="none" stroke="black" cx="555.28" cy="-158.26" rx="31.39" ry="31.39"/>
<text text-anchor="middle" x="555.28" y="-153.21" font-family="Times New Roman,serif" font-size="14.00">(1, 2)</text>
</g>
<!-- (0, 1)&#45;&gt;(1, 2) -->
<g id="edge6" class="edge">
<title>(0, 1)&#45;&gt;(1, 2)</title>
<path fill="none" stroke="black" d="M355.14,-153.06C395.54,-154.11 467,-155.98 512.43,-157.17"/>
<polygon fill="black" stroke="black" points="512.06,-160.66 522.15,-157.42 512.24,-153.66 512.06,-160.66"/>
<text text-anchor="middle" x="430.78" y="-159.35" font-family="Times New Roman,serif" font-size="14.00">a∧¬b, ⟨0,0⟩</text>
</g>
<!-- (1, 0)&#45;&gt;(1, 0) -->
<g id="edge7" class="edge">
<title>(1, 0)&#45;&gt;(1, 0)</title>
<path fill="none" stroke="black" d="M413.29,-77.55C406.75,-97.9 412.58,-118.65 430.78,-118.65 445.72,-118.65 452.33,-104.69 450.61,-88.43"/>
<polygon fill="black" stroke="black" points="454.11,-88.07 448.59,-79.03 447.26,-89.54 454.11,-88.07"/>
<text text-anchor="middle" x="430.78" y="-121.85" font-family="Times New Roman,serif" font-size="14.00">¬b, ⟨0,0⟩</text>
</g>
<!-- (2, 1) -->
<g id="node6" class="node">
<title>(2, 1)</title>
<ellipse fill="none" stroke="black" cx="786.92" cy="-74.26" rx="31.39" ry="31.39"/>
<text text-anchor="middle" x="786.92" y="-69.21" font-family="Times New Roman,serif" font-size="14.00">(2, 1)</text>
</g>
<!-- (1, 0)&#45;&gt;(2, 1) -->
<g id="edge8" class="edge">
<title>(1, 0)&#45;&gt;(2, 1)</title>
<path fill="none" stroke="black" d="M462.59,-53.26C526.12,-57.39 671.73,-66.85 743.85,-71.53"/>
<polygon fill="black" stroke="black" points="743.47,-75.01 753.68,-72.17 743.93,-68.03 743.47,-75.01"/>
<text text-anchor="middle" x="555.28" y="-65.47" font-family="Times New Roman,serif" font-size="14.00">b∧¬a, ⟨0,0⟩</text>
</g>
<!-- (1, 2)&#45;&gt;(1, 2) -->
<g id="edge9" class="edge">
<title>(1, 2)&#45;&gt;(1, 2)</title>
<path fill="none" stroke="black" d="M535.5,-183.14C527.05,-203.93 533.64,-225.65 555.28,-225.65 573.21,-225.65 580.81,-210.76 578.09,-193.83"/>
<polygon fill="black" stroke="black" points="581.57,-193.27 575.48,-184.6 574.83,-195.18 581.57,-193.27"/>
<text text-anchor="middle" x="555.28" y="-228.85" font-family="Times New Roman,serif" font-size="14.00">¬a∧¬b, ⟨0,0⟩</text>
</g>
<!-- (1, 2)&#45;&gt;(2, 1) -->
<g id="edge10" class="edge">
<title>(1, 2)&#45;&gt;(2, 1)</title>
<path fill="none" stroke="black" d="M586.64,-153.89C621.94,-148.05 681.39,-135.85 728.53,-114.26 736.76,-110.49 745.07,-105.53 752.7,-100.38"/>
<polygon fill="black" stroke="black" points="754.57,-103.35 760.72,-94.72 750.54,-97.63 754.57,-103.35"/>
<text text-anchor="middle" x="679.78" y="-148.17" font-family="Times New Roman,serif" font-size="14.00">b∧¬a, ⟨0,0⟩</text>
</g>
<!-- (1, 3) -->
<g id="node7" class="node">
<title>(1, 3)</title>
<ellipse fill="none" stroke="black" cx="786.92" cy="-212.26" rx="31.39" ry="31.39"/>
<text text-anchor="middle" x="786.92" y="-207.21" font-family="Times New Roman,serif" font-size="14.00">(1, 3)</text>
</g>
<!-- (1, 2)&#45;&gt;(1, 3) -->
<g id="edge11" class="edge">
<title>(1, 2)&#45;&gt;(1, 3)</title>
<path fill="none" stroke="black" d="M586.31,-165.32C626.88,-174.86 699.37,-191.91 744.93,-202.62"/>
<polygon fill="black" stroke="black" points="743.89,-205.97 754.42,-204.85 745.49,-199.16 743.89,-205.97"/>
<text text-anchor="middle" x="679.78" y="-200.98" font-family="Times New Roman,serif" font-size="14.00">a∧¬b, ⟨0,1⟩</text>
</g>
<!-- (2, 1)&#45;&gt;(1, 2) -->
<g id="edge12" class="edge">
<title>(2, 1)&#45;&gt;(1, 2)</title>
<path fill="none" stroke="black" d="M755.84,-80.44C724.13,-87.46 673.04,-100.18 631.03,-117.26 617.97,-122.58 604.27,-129.62 592.22,-136.36"/>
<polygon fill="black" stroke="black" points="590.78,-133.15 583.85,-141.16 594.26,-139.22 590.78,-133.15"/>
<text text-anchor="middle" x="618.2" y="-90.95" font-family="Times New Roman,serif" font-size="14.00">a∧¬b, ⟨0,0⟩</text>
</g>
<!-- (2, 1)&#45;&gt;(2, 1) -->
<g id="edge13" class="edge">
<title>(2, 1)&#45;&gt;(2, 1)</title>
<path fill="none" stroke="black" d="M769.43,-100.55C762.89,-120.9 768.72,-141.65 786.92,-141.65 801.86,-141.65 808.47,-127.69 806.75,-111.43"/>
<polygon fill="black" stroke="black" points="810.25,-111.07 804.74,-102.03 803.4,-112.54 810.25,-111.07"/>
<text text-anchor="middle" x="786.92" y="-144.85" font-family="Times New Roman,serif" font-size="14.00">¬a∧¬b, ⟨0,0⟩</text>
</g>
<!-- (3, 1) -->
<g id="node8" class="node">
<title>(3, 1)</title>
<ellipse fill="none" stroke="black" cx="1001.21" cy="-74.26" rx="31.39" ry="31.39"/>
<text text-anchor="middle" x="1001.21" y="-69.21" font-family="Times New Roman,serif" font-size="14.00">(3, 1)</text>
</g>
<!-- (2, 1)&#45;&gt;(3, 1) -->
<g id="edge14" class="edge">
<title>(2, 1)&#45;&gt;(3, 1)</title>
<path fill="none" stroke="black" d="M818.79,-74.26C855.61,-74.26 917.31,-74.26 958.39,-74.26"/>
<polygon fill="black" stroke="black" points="958.13,-77.76 968.13,-74.26 958.13,-70.76 958.13,-77.76"/>
<text text-anchor="middle" x="894.07" y="-77.46" font-family="Times New Roman,serif" font-size="14.00">b∧¬a, ⟨1,0⟩</text>
</g>
<!-- (1, 3)&#45;&gt;(1, 3) -->
<g id="edge15" class="edge">
<title>(1, 3)&#45;&gt;(1, 3)</title>
<path fill="none" stroke="black" d="M769.43,-238.55C762.89,-258.9 768.72,-279.65 786.92,-279.65 801.86,-279.65 808.47,-265.69 806.75,-249.43"/>
<polygon fill="black" stroke="black" points="810.25,-249.07 804.74,-240.03 803.4,-250.54 810.25,-249.07"/>
<text text-anchor="middle" x="786.92" y="-282.85" font-family="Times New Roman,serif" font-size="14.00">¬b, ⟨0,0⟩</text>
</g>
<!-- (2, 3) -->
<g id="node9" class="node">
<title>(2, 3)</title>
<ellipse fill="none" stroke="black" cx="1108.35" cy="-212.26" rx="31.39" ry="31.39"/>
<text text-anchor="middle" x="1108.35" y="-207.21" font-family="Times New Roman,serif" font-size="14.00">(2, 3)</text>
</g>
<!-- (1, 3)&#45;&gt;(2, 3) -->
<g id="edge16" class="edge">
<title>(1, 3)&#45;&gt;(2, 3)</title>
<path fill="none" stroke="black" d="M818.55,-212.26C876.03,-212.26 1000.13,-212.26 1065.35,-212.26"/>
<polygon fill="black" stroke="black" points="1065.3,-215.76 1075.3,-212.26 1065.3,-208.76 1065.3,-215.76"/>
<text text-anchor="middle" x="894.07" y="-215.46" font-family="Times New Roman,serif" font-size="14.00">b∧¬a, ⟨0,0⟩</text>
</g>
<!-- (3, 1)&#45;&gt;(3, 1) -->
<g id="edge20" class="edge">
<title>(3, 1)&#45;&gt;(3, 1)</title>
<path fill="none" stroke="black" d="M983.71,-100.55C977.17,-120.9 983,-141.65 1001.21,-141.65 1016.14,-141.65 1022.75,-127.69 1021.03,-111.43"/>
<polygon fill="black" stroke="black" points="1024.53,-111.07 1019.02,-102.03 1017.69,-112.54 1024.53,-111.07"/>
<text text-anchor="middle" x="1001.21" y="-144.85" font-family="Times New Roman,serif" font-size="14.00">¬a, ⟨0,0⟩</text>
</g>
<!-- (3, 2) -->
<g id="node11" class="node">
<title>(3, 2)</title>
<ellipse fill="none" stroke="black" cx="1232.85" cy="-74.26" rx="31.39" ry="31.39"/>
<text text-anchor="middle" x="1232.85" y="-69.21" font-family="Times New Roman,serif" font-size="14.00">(3, 2)</text>
</g>
<!-- (3, 1)&#45;&gt;(3, 2) -->
<g id="edge21" class="edge">
<title>(3, 1)&#45;&gt;(3, 2)</title>
<path fill="none" stroke="black" d="M1032.7,-74.26C1073.11,-74.26 1144.56,-74.26 1189.99,-74.26"/>
<polygon fill="black" stroke="black" points="1189.71,-77.76 1199.71,-74.26 1189.71,-70.76 1189.71,-77.76"/>
<text text-anchor="middle" x="1108.35" y="-77.46" font-family="Times New Roman,serif" font-size="14.00">a∧¬b, ⟨0,0⟩</text>
</g>
<!-- (2, 3)&#45;&gt;(1, 3) -->
<g id="edge17" class="edge">
<title>(2, 3)&#45;&gt;(1, 3)</title>
<path fill="none" stroke="black" d="M1094.72,-183.91C1084.82,-161.38 1070.88,-128.99 1059.6,-100.26 1046.64,-67.29 1061.58,-45.63 1032.6,-25.26 962.96,23.68 904.64,-4.23 845.32,-65.26 815.32,-96.12 834.98,-118.58 818.32,-158.26 815.89,-164.03 813.01,-169.96 809.99,-175.68"/>
<polygon fill="black" stroke="black" points="806.97,-173.91 805.22,-184.36 813.1,-177.28 806.97,-173.91"/>
<text text-anchor="middle" x="870.8" y="-134.45" font-family="Times New Roman,serif" font-size="14.00">a∧¬b, ⟨0,0⟩</text>
</g>
<!-- (2, 3)&#45;&gt;(2, 3) -->
<g id="edge18" class="edge">
<title>(2, 3)&#45;&gt;(2, 3)</title>
<path fill="none" stroke="black" d="M1090.85,-238.55C1084.31,-258.9 1090.14,-279.65 1108.35,-279.65 1123.28,-279.65 1129.89,-265.69 1128.17,-249.43"/>
<polygon fill="black" stroke="black" points="1131.67,-249.07 1126.16,-240.03 1124.83,-250.54 1131.67,-249.07"/>
<text text-anchor="middle" x="1108.35" y="-282.85" font-family="Times New Roman,serif" font-size="14.00">¬a∧¬b, ⟨0,0⟩</text>
</g>
<!-- (3, 3) -->
<g id="node10" class="node">
<title>(3, 3)</title>
<ellipse fill="none" stroke="black" cx="1464.49" cy="-143.26" rx="31.39" ry="31.39"/>
<text text-anchor="middle" x="1464.49" y="-138.21" font-family="Times New Roman,serif" font-size="14.00">(3, 3)</text>
</g>
<!-- (2, 3)&#45;&gt;(3, 3) -->
<g id="edge19" class="edge">
<title>(2, 3)&#45;&gt;(3, 3)</title>
<path fill="none" stroke="black" d="M1139.54,-206.38C1203.05,-194 1350.52,-165.27 1422.49,-151.25"/>
<polygon fill="black" stroke="black" points="1422.74,-154.77 1431.89,-149.42 1421.4,-147.9 1422.74,-154.77"/>
<text text-anchor="middle" x="1232.85" y="-200.56" font-family="Times New Roman,serif" font-size="14.00">b∧¬a, ⟨1,0⟩</text>
</g>
<!-- (3, 3)&#45;&gt;(3, 3) -->
<g id="edge22" class="edge">
<title>(3, 3)&#45;&gt;(3, 3)</title>
<path fill="none" stroke="black" d="M1446.99,-169.55C1440.45,-189.9 1446.28,-210.65 1464.49,-210.65 1479.42,-210.65 1486.03,-196.69 1484.31,-180.43"/>
<polygon fill="black" stroke="black" points="1487.81,-180.07 1482.3,-171.03 1480.97,-181.54 1487.81,-180.07"/>
<text text-anchor="middle" x="1464.49" y="-213.85" font-family="Times New Roman,serif" font-size="14.00">True, ⟨0,0⟩</text>
</g>
<!-- (3, 2)&#45;&gt;(3, 1) -->
<g id="edge23" class="edge">
<title>(3, 2)&#45;&gt;(3, 1)</title>
<path fill="none" stroke="black" d="M1203.69,-86.56C1189.92,-91.92 1172.95,-97.58 1157.1,-100.26 1114.37,-107.48 1101.95,-109.41 1059.6,-100.26 1052.79,-98.79 1045.82,-96.45 1039.19,-93.75"/>
<polygon fill="black" stroke="black" points="1041.07,-90.75 1030.5,-89.91 1038.24,-97.15 1041.07,-90.75"/>
<text text-anchor="middle" x="1069.22" y="-109.1" font-family="Times New Roman,serif" font-size="14.00">b∧¬a, ⟨0,0⟩</text>
</g>
<!-- (3, 2)&#45;&gt;(3, 3) -->
<g id="edge24" class="edge">
<title>(3, 2)&#45;&gt;(3, 3)</title>
<path fill="none" stroke="black" d="M1263.4,-83.14C1304.05,-95.35 1377.36,-117.38 1423.06,-131.12"/>
<polygon fill="black" stroke="black" points="1422.02,-134.46 1432.6,-133.98 1424.03,-127.75 1422.02,-134.46"/>
<text text-anchor="middle" x="1357.35" y="-127.96" font-family="Times New Roman,serif" font-size="14.00">a∧¬b, ⟨0,1⟩</text>
</g>
<!-- (3, 2)&#45;&gt;(3, 2) -->
<g id="edge25" class="edge">
<title>(3, 2)&#45;&gt;(3, 2)</title>
<path fill="none" stroke="black" d="M1213.07,-99.14C1204.61,-119.93 1211.21,-141.65 1232.85,-141.65 1250.77,-141.65 1258.37,-126.76 1255.65,-109.83"/>
<polygon fill="black" stroke="black" points="1259.13,-109.27 1253.04,-100.6 1252.4,-111.18 1259.13,-109.27"/>
<text text-anchor="middle" x="1232.85" y="-144.85" font-family="Times New Roman,serif" font-size="14.00">¬a∧¬b, ⟨0,0⟩</text>
</g>
</g>
</svg>
